# xmcd
#
# Track frame offsets:
#	183
#	13243
#	28203
#	37268
#	49385
#	62818
#	79863
#	90955
#	104983
#	120913
#	134713
#	149135
#	160313
#	170195
#	184585
#	200468
#	211725
#	225733
#	238168
#
# Disc length: 3380
#
# Revision: 1
# Processed by: cddbd v1.5.1PL0 Copyright (c) Steve Scherf et al.
# Submitted via: dBpowerAMP V4.0
# Normalized: r0:TSWAP
#
DISCID=240d3213
DTITLE=Various Artist - La Música de Mochín Marafioti - Vol. 3
DYEAR=1900
DGENRE=Dance
TTITLE0=Nat King Cole - Sonríe
TTITLE1=Peggy Lee - Fiebre
TTITLE2=Les Paul - Susurrando
TTITLE3=Gloria Lasso - Luna de miel
TTITLE4=Pino Donaggio - Yo que no vivo sin tí
TTITLE5=Lolita Torres - No me mires más
TTITLE6=Oscar Alemán - Caminos cruzados
TTITLE7=Edith Piaf - La vida color de rosa
TTITLE8=Judy Garland - Sobre el arco iris
TTITLE9=Benny Goodman - No seas así
TTITLE10=Charles Trenet - Que quedó de nuestros amores
TTITLE11=Miguel de Molina - Te lo juro yo
TTITLE12=Pee Wee Hunt - La tabla de lavar
TTITLE13=Jo Stafford - Me perteneces
TTITLE14=Harry James - Me has enamorado
TTITLE15=Lucho Gatica - Gracias
TTITLE16=Amalia Rodrigues - Lisboa antigua
TTITLE17=Les Baxter - Débiles y poderosos
TTITLE18=Altemar Dutra - Somos
EXTD=
EXTT0=
EXTT1=
EXTT2=
EXTT3=
EXTT4=
EXTT5=
EXTT6=
EXTT7=
EXTT8=
EXTT9=
EXTT10=
EXTT11=
EXTT12=
EXTT13=
EXTT14=
EXTT15=
EXTT16=
EXTT17=
EXTT18=
PLAYORDER=
